<svg width="64" height="64" viewBox="0 0 64 64" fill="none" xmlns="http://www.w3.org/2000/svg">
<g clip-path="url(#clip0_71_112)">
<rect width="64" height="64" rx="25" fill="#00B2CB"/>
<path d="M16.0285 7.38503L12 11.7701L12.1909 12.0168C12.2962 12.1508 13.1519 13.1025 14.0867 14.1318L15.7981 16L19.8991 11.615L24 7.22288L22.0252 5.10792L20.0505 3L16.0285 7.38503Z" fill="white"/>
<path d="M44.9555 11.7012L37.1854 20.1867L39.0517 22.0935L40.927 24.0096L41.4245 23.4574L41.9311 22.9144L42.8778 23.8816L43.8244 24.8489L44.7412 23.8489L45.6579 22.8489L44.7112 21.8816L43.7645 20.9144L44.6639 19.9428L45.5543 18.962L46.501 19.9293L47.4477 20.8965L48.3644 19.8965L49.2811 18.8966L48.3795 17.9754C47.8836 17.4687 47.4771 17.0074 47.4764 16.9605C47.4746 16.8387 52.7304 11.1055 52.8458 11.1034C52.8901 11.1027 54.1787 12.3731 55.7024 13.9299L58.4794 16.7672L52.5251 23.2623L46.5621 29.767L48.4104 31.6554L50.2587 33.5439L58.0026 25.087L65.7467 16.6395L59.2362 9.93231L52.7257 3.22514L44.9555 11.7012Z" fill="white"/>
<path d="M20.26 12.0662L16.275 16.44L30.9936 32.595L45.7121 48.75L49.7099 44.362L53.7141 39.967L39.0148 23.8332C30.9229 14.9515 24.2963 7.69231 24.277 7.69231C24.2577 7.69231 22.4517 9.66055 20.26 12.0662Z" fill="white"/>
<path d="M-4.99574 11.0498C-5.19175 11.6304 -5.47068 12.3621 -5.61392 12.6802C-6.34517 14.2629 -7.98107 14.9627 -9.56419 14.3821C-9.79035 14.3026 -10.4462 13.9924 -11.0267 13.7061L-12.0746 13.1733L-13.5446 14.7241L-15.0147 16.275L-14.5096 17.3884C-14.2306 18.0008 -13.9517 18.6529 -13.8914 18.8359C-13.3034 20.5855 -13.9743 22.3273 -15.5424 23.1226C-15.8741 23.2896 -16.5676 23.5838 -17.0803 23.7668L-18 24.0928V26.3356V28.5704L-17.1104 28.8885C-15.8967 29.318 -14.9996 29.8031 -14.5699 30.2565C-13.9065 30.9722 -13.5597 32.0857 -13.7105 33.0639C-13.7934 33.6286 -13.914 33.9546 -14.5322 35.3226L-14.9921 36.3565L-13.5069 37.9232L-12.0218 39.49L-10.9061 38.9094C-9.01387 37.9312 -8.162 37.8437 -6.94827 38.4958C-6.08885 38.9571 -5.62145 39.7047 -4.96559 41.693L-4.59619 42.8064L-2.53059 42.8303L-0.464983 42.8462L-0.178513 41.9157C0.552742 39.5297 1.19353 38.6549 2.5128 38.2254C3.4476 37.9153 4.12609 38.0505 5.74691 38.8696C6.35 39.1798 6.89279 39.4263 6.9531 39.4263C7.02095 39.4263 7.70697 38.7503 8.49099 37.9232C9.73488 36.603 9.90073 36.3962 9.8555 36.2292C9.82534 36.1338 9.61426 35.6645 9.39564 35.1953C9.16948 34.7181 8.89808 34.058 8.79254 33.724C8.40053 32.4992 8.65685 31.2108 9.47103 30.2962C9.91581 29.7952 10.4963 29.4691 11.8533 28.9681L12.9464 28.5704L12.969 26.3436L12.9841 24.1167L12.0266 23.7668C10.0817 23.0669 9.41072 22.5897 8.93578 21.5399C8.70208 21.0309 8.64931 20.8321 8.62669 20.2833C8.58146 19.4562 8.73977 18.8836 9.40318 17.4679C9.67457 16.8874 9.89319 16.3784 9.89319 16.3307C9.89319 16.2829 9.23733 15.5513 8.43822 14.7082L6.98325 13.1733L5.96553 13.6982C4.35979 14.5253 3.65869 14.7082 2.83697 14.5333C1.81924 14.3106 1.00506 13.6584 0.537664 12.6961C0.401968 12.4177 0.138113 11.702 -0.0654316 11.1134L-0.41975 10.0398L-2.53059 10.0159L-4.63388 10L-4.99574 11.0498ZM-1.33947 21.015C-1.06808 21.0866 -0.562986 21.2854 -0.208668 21.4683C0.628128 21.9057 1.58554 22.884 1.99263 23.719C2.45249 24.6655 2.61081 25.3415 2.61081 26.3436C2.61081 27.8705 2.14341 29.0794 1.11061 30.169C0.613052 30.6939 0.371813 30.8768 -0.208668 31.187C-1.13593 31.6642 -1.82195 31.8232 -2.80952 31.7675C-4.73943 31.6562 -6.3904 30.4951 -7.21212 28.6579C-7.98861 26.9241 -7.85291 24.9597 -6.84272 23.3373C-6.12655 22.1762 -5.07867 21.4047 -3.71416 21.015C-3.20153 20.8639 -1.94257 20.8718 -1.33947 21.015Z" fill="white"/>
<path d="M18.3187 39.3177L9.82007 48.6653L16.8667 56.3326L23.9134 64L32.3636 54.7269C37.0001 49.6224 40.8041 45.4006 40.8041 45.3474C40.8041 45.2836 39.933 44.2839 38.8682 43.1142L36.9323 40.9873L30.418 48.1442L23.9134 55.2905L20.9321 52.0151C19.2963 50.2179 17.9605 48.6972 17.9605 48.644C17.9605 48.5802 18.3961 48.0591 18.9285 47.4742L19.8964 46.4108L20.9128 47.5274L21.9291 48.644L22.9164 47.5487L23.9134 46.464L22.8971 45.3474L21.8807 44.2308L22.8487 43.1673C23.381 42.5825 23.8553 42.1039 23.9134 42.1039C23.9618 42.1039 24.4458 42.5825 24.9782 43.1673L25.9461 44.2308L26.9625 43.1142L27.9788 41.9976L26.9625 40.881L25.9461 39.7644L26.9431 38.6797L27.9304 37.5843L28.9467 38.7009L29.9631 39.8175L30.9794 38.7009L31.9958 37.5843L30.9794 36.4677L29.9631 35.3511L30.3987 34.8726L30.8342 34.394L28.8209 32.1821L26.8173 29.9808L18.3187 39.3177Z" fill="white"/>
<path d="M50.8543 45.5781C47.5152 49.0645 47.1449 49.4708 47.283 49.5036C47.5968 49.5822 56.2772 51.1092 56.296 51.0961C56.3148 51.0699 54.6453 41.7444 54.6076 41.7116C54.5951 41.6985 52.9067 43.4352 50.8543 45.5781Z" fill="white"/>
</g>
<defs>
<clipPath id="clip0_71_112">
<rect width="64" height="64" rx="25" fill="white"/>
</clipPath>
</defs>
</svg>
